<?xml version="1.0" encoding="UTF-8" standalone="no"?>
<!-- Created with Inkscape (http://www.inkscape.org/) -->

<svg
   width="163.72345mm"
   height="49.42131mm"
   viewBox="0 0 163.72345 49.42131"
   version="1.1"
   id="svg5"
   xml:space="preserve"
   inkscape:version="1.2.1 (9c6d41e410, 2022-07-14)"
   sodipodi:docname="логотип.svg.2022_11_07_15_19_29.0.svg"
   xmlns:inkscape="http://www.inkscape.org/namespaces/inkscape"
   xmlns:sodipodi="http://sodipodi.sourceforge.net/DTD/sodipodi-0.dtd"
   xmlns="http://www.w3.org/2000/svg"
   xmlns:svg="http://www.w3.org/2000/svg"><sodipodi:namedview
     id="namedview7"
     pagecolor="#505050"
     bordercolor="#ffffff"
     borderopacity="1"
     inkscape:showpageshadow="0"
     inkscape:pageopacity="0"
     inkscape:pagecheckerboard="1"
     inkscape:deskcolor="#505050"
     inkscape:document-units="mm"
     showgrid="false"
     inkscape:zoom="0.90286675"
     inkscape:cx="573.17428"
     inkscape:cy="-37.657827"
     inkscape:window-width="1920"
     inkscape:window-height="986"
     inkscape:window-x="-11"
     inkscape:window-y="-11"
     inkscape:window-maximized="1"
     inkscape:current-layer="text310"><inkscape:grid
       type="xygrid"
       id="grid2111"
       originx="-10.047892"
       originy="-134.21149" /></sodipodi:namedview><defs
     id="defs2"><inkscape:path-effect
       effect="fillet_chamfer"
       id="path-effect1353"
       is_visible="true"
       lpeversion="1"
       nodesatellites_param="F,0,0,1,0,0.79375,0,1 @ F,0,0,1,0,0.79375,0,1 @ F,0,0,1,0,0.79375,0,1 @ F,0,0,1,0,0.79375,0,1 @ F,0,0,1,0,0.79375,0,1 @ F,0,0,1,0,0.79375,0,1 @ F,0,0,1,0,0.79375,0,1 @ F,0,0,1,0,0.79375,0,1 @ F,0,0,1,0,0.79375,0,1 @ F,0,0,1,0,0.79375,0,1 @ F,0,0,1,0,0.79375,0,1"
       unit="px"
       method="auto"
       mode="F"
       radius="3"
       chamfer_steps="1"
       flexible="false"
       use_knot_distance="true"
       apply_no_radius="true"
       apply_with_radius="true"
       only_selected="false"
       hide_knots="false" /><inkscape:path-effect
       effect="fillet_chamfer"
       id="path-effect1318"
       is_visible="true"
       lpeversion="1"
       nodesatellites_param="F,0,0,1,0,1.0583333,0,1 @ F,0,0,1,0,1.0583333,0,1 @ F,0,0,1,0,1.0583333,0,1 @ F,0,0,1,0,1.0583333,0,1 @ F,0,0,1,0,1.0583333,0,1 @ F,0,0,1,0,1.0583333,0,1 @ F,0,0,1,0,1.0583333,0,1 @ F,0,0,1,0,1.0583333,0,1 @ F,0,0,1,0,1.0583333,0,1 @ F,0,0,1,0,1.0583333,0,1 @ F,0,0,1,0,1.0583333,0,1"
       unit="px"
       method="auto"
       mode="F"
       radius="4"
       chamfer_steps="1"
       flexible="false"
       use_knot_distance="true"
       apply_no_radius="true"
       apply_with_radius="true"
       only_selected="false"
       hide_knots="false" /></defs><g
     inkscape:groupmode="layer"
     id="layer3"
     inkscape:label="лого"
     style="display:inline"
     transform="translate(-10.047894,-134.21149)"><g
       aria-label="Nord  Adventure"
       id="text310"
       style="font-size:17.1519px;line-height:1;font-family:'Berlin Sans FB';-inkscape-font-specification:'Berlin Sans FB, Normal';fill:#203845;fill-opacity:1;stroke-width:1.41412"
       transform="translate(-33.407477,-87.15037)"><path
         style="display:inline;fill:#0c3044;fill-opacity:1;stroke:none;stroke-width:0.867436;stroke-dasharray:none;stroke-opacity:1"
         d="m 43.540073,269.83687 10.60459,-17.81179 a 1.7288898,1.7288898 0 0 1 1.597519,-0.84082 l 0.02899,0.002 a 1.7147925,1.7147925 0 0 0 1.590862,-0.84475 l 6.335498,-10.82034 a 0.86321106,0.86321106 0 0 1 1.321912,-0.20588 l 3.064958,2.75449 a 0.92343109,0.92343109 0 0 0 1.381386,-0.16835 l 13.71076,-20.20687 a 0.75865304,0.75865304 0 0 1 1.232783,-0.0318 l 5.087528,6.7242 a 0.90239522,0.90239522 0 0 0 1.371,0.0801 l 1.2706,-1.32523 a 0.81180103,0.81180103 0 0 1 1.28047,0.14146 l 10.654651,17.60267 a 0.93103247,0.93103247 0 0 0 1.37618,0.24644 l 2.83044,-2.25215 a 0.87543214,0.87543214 0 0 1 1.32016,0.27807 l 14.00278,26.66854 a 0.63950033,0.63950033 0 0 1 -0.56633,0.93679 l -78.97981,-0.017 a 0.601756,0.601756 0 0 1 -0.516925,-0.9096 z"
         id="path1679-5-2"
         sodipodi:nodetypes="cccccccccccc"
         inkscape:label="path1679" /><path
         class="cls-2"
         d="m 71.953661,270.49794 v -11.73258 c 0,-0.6973 -0.24296,-1.33629 -0.63899,-1.66429 l -6.88552,-5.72416 c -0.48591,-0.40331 -1.08117,-0.24296 -1.45776,0.38388 l -2.9787,5.0463 a 2.5438008,2.5438008 0 0 0 -0.32071,1.27798 v 12.41287 c 0,0.0874 0,0.17251 0.0146,0.25754 h 12.25251 c 0.007,-0.085 0.0146,-0.17007 0.0146,-0.25754 z"
         id="path597-9-8-77"
         style="display:inline;fill:#f18632;stroke-width:0.242961" /><path
         class="cls-2"
         d="m 92.240279,270.58784 v -21.38056 a 1.423751,1.423751 0 0 0 -0.67057,-1.24153 l -6.059448,-3.43547 a 1.0811761,1.0811761 0 0 0 -1.17836,0.0632 l -4.3733,3.11476 a 1.4407582,1.4407582 0 0 0 -0.57096,1.17593 v 21.7037 a 1.236671,1.236671 0 0 0 0,0.16764 h 12.821048 c 0.0243,-0.0511 0.0316,-0.1069 0.0316,-0.16764 z"
         id="path601-9-8-0"
         style="display:inline;fill:#f18632;stroke-width:0.242961" /><path
         class="cls-3"
         d="m 81.895981,270.65586 v -7.50992 c 0,-0.29641 -0.31828,-0.5661 -0.81635,-0.69001 l -9.46332,-2.33728 c -0.9184,-0.22839 -1.95827,0.13849 -1.95827,0.68758 v 9.84963 a 0.3425749,0.3425749 0 0 0 0.017,0.0996 h 12.20392 a 0.3425749,0.3425749 0 0 0 0.017,-0.0996 z"
         id="path603-3-4-48"
         style="display:inline;fill:#179dc2;fill-opacity:1;stroke-width:0.242961" /><path
         class="cls-3"
         d="m 101.56582,270.56451 v -20.84605 c 0,-1.16621 -1.04473,-1.94369 -1.960701,-1.45776 l -9.36857,4.93696 a 1.635127,1.635127 0 0 0 -0.80906,1.45777 v 15.90908 a 1.6254086,1.6254086 0 0 0 0.017,0.21866 h 12.097021 a 1.6254086,1.6254086 0 0 0 0.0243,-0.21866 z"
         id="path605-4-4-8"
         style="display:inline;fill:#179dc2;fill-opacity:1;stroke-width:0.242961" /><path
         class="cls-2"
         d="m 113.23865,270.59124 v -4.64299 a 1.3897364,1.3897364 0 0 0 -0.61955,-1.15649 l -3.34315,-2.21581 a 1.380018,1.380018 0 0 0 -1.19536,-0.16278 l -7.99342,2.6094 a 1.3873068,1.3873068 0 0 0 -0.954831,1.31685 v 4.25424 a 1.2148045,1.2148045 0 0 0 0.017,0.18951 h 14.072301 a 1.2148045,1.2148045 0 0 0 0.017,-0.19193 z"
         id="path599-2-2-9"
         style="display:inline;fill:#f18632;stroke-width:0.242961" /><g
         aria-label="Nord  Adventure"
         id="text310-9"
         style="font-size:17.1519px;line-height:1;font-family:'Berlin Sans FB';-inkscape-font-specification:'Berlin Sans FB, Normal';display:inline;fill:#0c3044;fill-opacity:1;stroke-width:1.41412"
         transform="translate(-2.1096305,123.30684)"><path
           d="m 144.95203,118.52971 q 0,0.96312 -0.067,2.90611 -0.067,1.94299 -0.067,2.91448 0,0.91287 0.0168,2.73861 0.0168,1.81737 0.0168,2.73024 0,0.27637 -0.20937,0.27637 -0.12563,0 -0.37687,-0.0251 -0.25125,-0.0251 -0.37688,-0.0251 -0.134,0 -0.41037,0.0251 -0.27637,0.0251 -0.41037,0.0251 -0.15075,0 -0.36012,-0.27637 -1.80899,-2.43711 -5.4856,-7.26946 -0.56949,-0.737 -0.66162,-0.82075 -0.0837,0 -0.0837,0.34338 0,1.28974 0.0419,3.8776 0.0419,2.57948 0.0419,3.86923 0,0.27637 -0.1675,0.27637 -0.14237,0 -0.4355,-0.0251 -0.29312,-0.0251 -0.43549,-0.0251 -0.15075,0 -0.45225,0.0251 -0.29312,0.0251 -0.44387,0.0251 -0.20938,0 -0.20938,-0.1675 0,-0.92124 0.0838,-2.77211 0.0921,-1.85924 0.0921,-2.78886 0,-1.01337 -0.0754,-3.65147 -0.0168,-0.68675 -0.0838,-2.06024 l -0.008,-0.10888 q -0.008,-0.12562 0.201,-0.134 0.54437,-0.008 0.85424,-0.0335 0.11725,-0.008 0.44388,-0.067 0.27637,-0.0503 0.43549,-0.0503 0.0754,0 0.25963,0.24288 1.92623,2.64648 5.89596,7.87245 0.17588,0.21775 0.32662,0.37687 0.0586,-0.35174 0.0586,-1.60799 0,-1.08874 -0.0838,-3.26623 -0.0754,-2.17748 -0.0754,-3.25785 0,-0.27638 0.16749,-0.27638 0.15075,0 0.45225,0.0251 0.30987,0.0251 0.46062,0.0251 0.15913,0 0.47738,-0.0251 0.31824,-0.0251 0.47737,-0.0251 0.17587,0 0.17587,0.18425 z"
           id="path5668-6"
           style="fill:#0c3044;fill-opacity:1" /><path
           d="m 154.29848,126.01692 q 0,1.75036 -1.14737,2.98986 -1.17249,1.28136 -2.90611,1.28136 -1.74199,0 -2.91448,-1.27299 -1.14737,-1.23112 -1.14737,-2.98148 0,-1.75037 1.14737,-2.98148 1.18087,-1.25625 2.91448,-1.25625 1.72524,0 2.89773,1.25625 1.15575,1.22274 1.15575,2.96473 z m -1.76712,0.0168 q 0,-1.02175 -0.62812,-1.74199 -0.65324,-0.76212 -1.65824,-0.76212 -1.00499,0 -1.66661,0.75374 -0.62812,0.72862 -0.62812,1.75037 0,1.00499 0.63649,1.74199 0.67,0.77887 1.65824,0.77887 0.99662,0 1.65824,-0.77887 0.62812,-0.737 0.62812,-1.74199 z"
           id="path5670-8"
           style="fill:#0c3044;fill-opacity:1" /><path
           d="m 160.26982,122.23144 q 0,0.92125 -0.12563,1.67499 -0.0251,0.19263 -0.1675,0.19263 -0.17587,0 -0.53599,-0.0335 -0.35175,-0.0419 -0.536,-0.0419 -1.05524,0 -1.34837,0.59462 -0.17587,0.36013 -0.17587,1.49912 v 0.92124 q 0,0.469 0.0335,1.42374 0.0419,0.95475 0.0419,1.42375 0,0.22612 -0.19262,0.22612 -0.25962,0 -0.78724,-0.008 -0.52763,-0.008 -0.78725,-0.008 -0.19262,0 -0.19262,-0.20937 0,-0.67837 0.0167,-2.04349 0.0251,-1.36512 0.0251,-2.05186 0,-2.06862 -0.38525,-3.32486 -0.0168,-0.067 -0.0168,-0.1005 0,-0.1005 0.10888,-0.14237 0.30987,-0.0335 0.87099,-0.1005 0.9045,-0.1675 0.8375,-0.1675 0.134,0 0.17587,0.49412 0.0419,0.49412 0.15075,0.49412 0.0168,0 0.0419,-0.0168 0.34337,-0.21775 0.68674,-0.4355 0.37687,-0.22612 0.7705,-0.33499 0.32662,-0.1005 0.83749,-0.1005 0.65325,0 0.65325,0.17587 z"
           id="path5672-52"
           style="fill:#0c3044;fill-opacity:1" /><path
           d="m 169.23939,118.41246 q 0,1.08037 -0.1005,3.24111 -0.0921,2.15236 -0.0921,3.22436 0,3.3081 0.14237,5.00822 l 0.008,0.10887 q 0.008,0.0837 -0.22613,0.10887 -0.15912,0.0168 -0.45224,0 -0.35175,-0.0251 -0.32663,-0.0251 -0.12562,0 -0.3685,0.0251 -0.24287,0.0251 -0.36849,0.0251 -0.11725,0 -0.14238,-0.57787 -0.0168,-0.58625 -0.0586,-0.59462 -0.0502,0.0251 -0.12563,0.10887 -1.14736,1.23949 -2.63811,1.23949 -1.69174,0 -2.78048,-1.28974 -1.03012,-1.21437 -1.03012,-2.93123 0,-1.78387 1.0385,-2.99823 1.08874,-1.273 2.8391,-1.273 1.05525,0 1.84249,0.61975 0.36013,0.30987 0.71187,0.62812 0.067,-0.0251 0.067,-0.11725 v -2.71348 q 0,-0.27638 -0.0251,-0.8375 -0.0251,-0.56112 -0.0251,-0.84587 0,-0.201 0.134,-0.201 0.30988,0 0.92125,-0.0503 0.61137,-0.0586 0.91287,-0.0586 0.14237,0 0.14237,0.17587 z m -2.09374,7.62121 q 0,-1.005 -0.61974,-1.76712 -0.66162,-0.81237 -1.64149,-0.81237 -1.03012,0 -1.70012,0.804 -0.63649,0.75374 -0.63649,1.80899 0,1.00499 0.66162,1.75036 0.67837,0.78725 1.67499,0.78725 1.00499,0 1.65824,-0.79562 0.60299,-0.74537 0.60299,-1.77549 z"
           id="path5674-8"
           style="fill:#0c3044;fill-opacity:1" /><path
           d="m 144.77616,147.14692 q 0,0.1005 -0.201,0.1005 -0.15912,0 -0.469,-0.0251 -0.3015,-0.0251 -0.46062,-0.0251 -0.15912,0 -0.47737,0.0251 -0.31825,0.0251 -0.47737,0.0251 -0.2345,0 -0.603,-1.26462 -0.36012,-1.27299 -0.737,-1.28974 -0.30987,-0.0168 -1.61636,-0.0168 h -1.32324 q -1.38187,0 -1.5745,0.0168 -0.30149,0.0251 -0.64487,1.28974 -0.33499,1.26462 -0.51924,1.26462 h -1.88437 q -0.1675,0 -0.1675,-0.11725 0,-0.0837 0.11725,-0.37687 l 2.05187,-5.61122 q 0.25962,-0.67837 1.57449,-3.9111 0.2345,-0.536 0.63649,-1.61637 0.1005,-0.31825 0.21775,-0.31825 0.15913,0 0.469,0.0419 0.30987,0.0419 0.469,0.0419 0.15075,0 0.45224,-0.0419 0.30988,-0.0503 0.45225,-0.0503 0.0754,0 0.20937,0.30987 0.201,0.469 1.98487,5.0501 2.52086,6.44034 2.52086,6.49896 z m -3.90273,-4.62297 q 0,-0.24288 -0.75374,-2.17749 -0.72863,-1.87599 -1.03012,-2.46224 -1.73362,4.42198 -1.73362,4.63135 0,0.28475 0.6365,0.335 0.0335,0.008 0.82074,0.008 h 0.86262 q 1.19762,0 1.19762,-0.335 z"
           id="path5676-4"
           style="fill:#0c3044;fill-opacity:1" /><path
           d="m 153.75411,135.56436 q 0,1.08037 -0.1005,3.24111 -0.0921,2.15236 -0.0921,3.22435 0,3.30811 0.14238,5.00823 l 0.008,0.10887 q 0.008,0.0838 -0.22612,0.10887 -0.15913,0.0168 -0.45225,0 -0.35175,-0.0251 -0.32662,-0.0251 -0.12563,0 -0.3685,0.0251 -0.24287,0.0251 -0.3685,0.0251 -0.11725,0 -0.14237,-0.57787 -0.0168,-0.58625 -0.0586,-0.59462 -0.0503,0.0251 -0.12562,0.10887 -1.14737,1.23949 -2.63811,1.23949 -1.69174,0 -2.78049,-1.28974 -1.03011,-1.21437 -1.03011,-2.93123 0,-1.78387 1.03849,-2.99823 1.08874,-1.273 2.83911,-1.273 1.05524,0 1.84249,0.61975 0.36012,0.30987 0.71187,0.62812 0.067,-0.0251 0.067,-0.11725 v -2.71348 q 0,-0.27638 -0.0251,-0.8375 -0.0251,-0.56112 -0.0251,-0.84587 0,-0.201 0.134,-0.201 0.30987,0 0.92124,-0.0502 0.61137,-0.0586 0.91287,-0.0586 0.14238,0 0.14238,0.17587 z m -2.09374,7.62121 q 0,-1.005 -0.61975,-1.76712 -0.66162,-0.81237 -1.64149,-0.81237 -1.03012,0 -1.70011,0.804 -0.6365,0.75374 -0.6365,1.80899 0,1.00499 0.66162,1.75036 0.67837,0.78725 1.67499,0.78725 1.005,0 1.65824,-0.79562 0.603,-0.74537 0.603,-1.77549 z"
           id="path5678-0"
           style="fill:#0c3044;fill-opacity:1" /><path
           d="m 162.47243,141.7032 q 0,1.18087 -0.0754,1.37349 -0.12563,0.37688 -1.35675,2.20262 -1.26461,1.86761 -1.50749,1.96811 -0.11725,0.0503 -0.70349,0.0503 -0.56113,0 -0.737,-0.0503 -0.2345,-0.0754 -1.53262,-1.89274 -1.26461,-1.76711 -1.41536,-2.15236 -0.201,-0.52762 -0.201,-1.63312 0,-0.34337 0.0168,-1.03012 0.0168,-0.68674 0.0168,-1.03012 0,-0.18424 0.18425,-0.18424 0.27637,0 0.82074,0.0251 0.55275,0.0251 0.82912,0.0251 0.15075,0 0.15075,0.16749 0,0.268 -0.0335,0.79562 -0.0335,0.51925 -0.0335,0.78725 0,0.7705 0.0838,1.40699 0.0419,0.31825 0.84587,1.55774 0.81237,1.2395 1.005,1.2395 0.18424,0 0.91287,-1.21437 0.72024,-1.18925 0.77049,-1.49912 0.067,-0.41875 0.067,-1.44049 0,-0.27637 -0.0586,-0.82912 -0.0503,-0.55275 -0.0503,-0.82912 0,-0.12562 0.12562,-0.12562 0.27637,0 0.81237,-0.0251 0.536,-0.0335 0.804,-0.0335 0.25962,0 0.25962,2.37011 z"
           id="path5680-8"
           style="fill:#0c3044;fill-opacity:1" /><path
           d="m 171.01488,142.75007 q 0,0.61975 -0.536,0.82912 -0.36012,0.134 -5.18409,0.49412 0.10887,0.737 0.81237,1.25625 0.66999,0.49412 1.44049,0.49412 1.32324,0 2.42874,-0.85425 0.13399,-0.10887 0.26799,-0.21775 0.067,0 0.0837,0.0168 0.0251,0.0168 0.31825,0.58625 0.29312,0.56112 0.29312,0.603 0,0.0502 -0.13399,0.19262 -1.23112,1.30649 -3.15736,1.30649 -1.94299,0 -3.09873,-1.15574 -1.15575,-1.16412 -1.15575,-3.09873 0,-1.72524 1.1055,-3.00661 1.16412,-1.33162 2.85586,-1.33162 1.57449,0 2.62973,1.15575 1.03012,1.12224 1.03012,2.73023 z m -1.99324,-0.51087 q 0,-0.69512 -0.55275,-1.23112 -0.54437,-0.536 -1.23111,-0.536 -0.7705,0 -1.3735,0.61975 -0.59462,0.61975 -0.59462,1.39024 0,0.17588 0.3015,0.17588 1.23949,0 2.96473,-0.25125 0.48575,-0.067 0.48575,-0.1675 z"
           id="path5682-3"
           style="fill:#0c3044;fill-opacity:1" /><path
           d="m 179.5657,147.07992 q 0,0.18425 -0.1675,0.18425 -0.27637,0 -0.82912,-0.008 -0.54437,-0.008 -0.82074,-0.008 -0.15075,0 -0.15075,-0.24287 0,-0.41038 0.0251,-1.24787 0.0251,-0.8375 0.0251,-1.25624 0,-0.335 -0.008,-0.99662 -0.008,-0.67 -0.008,-1.005 0,-0.95474 -0.27637,-1.34836 -0.335,-0.469 -1.2395,-0.469 -0.41874,0 -1.16412,0.469 -0.78724,0.49412 -0.78724,0.87936 v 5.02498 q 0,0.20937 -0.15912,0.20937 -0.268,0 -0.804,-0.008 -0.536,-0.008 -0.804,-0.008 -0.17587,0 -0.17587,-0.19262 0,-0.66163 0.0168,-1.98487 0.0251,-1.32324 0.0251,-1.99324 0,-1.78386 -0.37688,-3.29135 -0.0251,-0.0754 -0.0251,-0.10888 0,-0.0837 0.10887,-0.11725 0.0586,-0.008 0.95475,-0.15074 0.90449,-0.15075 0.94637,-0.15075 0.0502,0 0.067,0.134 0.0419,0.51924 0.19262,1.04686 0.4355,-0.34337 1.14737,-0.85424 0.87937,-0.536 1.70011,-0.536 1.57449,0 2.15237,0.91287 0.42712,0.67 0.42712,2.16911 0,0.25963 -0.0168,0.79562 -0.008,0.536 -0.008,0.804 0,0.56112 0.0168,1.67499 0.0168,1.11387 0.0168,1.67499 z"
           id="path5684-1"
           style="fill:#0c3044;fill-opacity:1" /><path
           d="m 185.82179,145.70643 q 0,0.18425 -0.0335,0.5025 -0.0419,0.39362 -0.0502,0.51087 -0.008,0.15075 -0.0251,0.18425 -0.0335,0.0586 -0.15913,0.11725 -0.68674,0.32662 -2.16073,0.32662 -1.95974,0 -1.95974,-1.77549 0,-0.71187 0.0335,-2.13561 0.0335,-1.43212 0.0335,-2.14399 0,-0.34337 -0.34337,-0.3685 -0.30988,0 -0.61138,-0.008 -0.17587,-0.0419 -0.17587,-0.68675 0,-0.24287 0.0335,-0.51087 0.0251,-0.201 0.268,-0.24288 0.20937,0 0.41037,-0.008 0.38525,-0.0168 0.38525,-0.34337 0,-0.335 -0.0251,-1.02175 -0.0168,-0.68674 -0.0168,-1.03012 0,-0.61137 0.2345,-0.61137 0.0754,0 1.57449,0.25963 0.19263,0.0251 0.19263,0.18425 0,0.36849 -0.0586,1.10549 -0.0503,0.73699 -0.0503,1.10549 0,0.24288 0.22613,0.24288 h 2.00998 q 0.14238,0 0.14238,0.1005 0,0.10049 -0.0335,0.32662 -0.0251,0.21775 -0.0251,0.32662 0,0.12563 0.008,0.38525 0.008,0.25962 0.008,0.38525 0,0.15912 -0.23449,0.15912 -0.335,0 -1.01337,-0.0419 -0.67838,-0.0503 -1.01337,-0.0503 -0.067,0 -0.1005,0.47737 -0.0419,0.59462 -0.0419,1.66661 v 1.24787 q 0,0.72025 0.134,1.005 0.201,0.43549 0.82912,0.43549 0.25963,0 0.76212,-0.10887 0.5025,-0.11725 0.74537,-0.11725 0.1005,0 0.1005,0.15075 z"
           id="path5686-4"
           style="fill:#0c3044;fill-opacity:1" /><path
           d="m 194.77461,139.65134 q 0,0.61137 -0.0503,1.85086 -0.0502,1.23112 -0.0502,1.85087 0,0.61137 0.0335,1.83411 0.0419,1.21437 0.0419,1.82574 0,0.1675 -0.15912,0.21775 -0.067,0.0168 -1.70012,0.0168 -0.1005,0 -0.12562,-0.62812 -0.0168,-0.62812 -0.0921,-0.62812 -0.0419,0 -0.12562,0.0754 -1.39862,1.21437 -2.76374,1.21437 -1.85086,0 -2.44548,-1.33999 -0.3685,-0.82912 -0.3685,-2.98149 0,-1.94298 0.30987,-3.29135 0.0754,-0.32662 0.27638,-0.32662 0.24287,0 0.72862,0.008 0.48574,0.008 0.72862,0.008 0.1675,0 0.1675,0.18424 0,0.32663 -0.10888,1.08875 -0.11725,0.81237 -0.12562,1.14737 -0.0251,0.50249 -0.0251,1.10549 0,1.46562 0.20938,1.96811 0.36012,0.9045 1.59961,0.9045 0.52763,0 1.24787,-0.51925 0.76212,-0.54437 0.78725,-1.04687 0.0419,-0.62812 0.0419,-4.42197 0,-0.41037 0.34337,-0.41037 h 1.38187 q 0.24287,0 0.24287,0.29312 z"
           id="path5688-6"
           style="fill:#0c3044;fill-opacity:1" /><path
           d="m 201.27358,139.38334 q 0,0.92125 -0.12563,1.67499 -0.0251,0.19262 -0.1675,0.19262 -0.17587,0 -0.53599,-0.0335 -0.35175,-0.0419 -0.536,-0.0419 -1.05524,0 -1.34837,0.59462 -0.17587,0.36012 -0.17587,1.49912 v 0.92124 q 0,0.469 0.0335,1.42374 0.0419,0.95475 0.0419,1.42375 0,0.22612 -0.19262,0.22612 -0.25962,0 -0.78725,-0.008 -0.52762,-0.008 -0.78724,-0.008 -0.19262,0 -0.19262,-0.20937 0,-0.67838 0.0167,-2.04349 0.0251,-1.36512 0.0251,-2.05187 0,-2.06861 -0.38525,-3.32485 -0.0168,-0.067 -0.0168,-0.1005 0,-0.1005 0.10888,-0.14237 0.30987,-0.0335 0.87099,-0.1005 0.9045,-0.1675 0.8375,-0.1675 0.134,0 0.17587,0.49412 0.0419,0.49412 0.15075,0.49412 0.0168,0 0.0419,-0.0168 0.34338,-0.21775 0.68675,-0.4355 0.37687,-0.22612 0.7705,-0.33499 0.32662,-0.1005 0.83749,-0.1005 0.65325,0 0.65325,0.17587 z"
           id="path5690-09"
           style="fill:#0c3044;fill-opacity:1" /><path
           d="m 209.2884,142.75007 q 0,0.61975 -0.53599,0.82912 -0.36013,0.134 -5.1841,0.49412 0.10888,0.737 0.81237,1.25625 0.67,0.49412 1.44049,0.49412 1.32325,0 2.42874,-0.85425 0.134,-0.10887 0.268,-0.21775 0.067,0 0.0838,0.0168 0.0251,0.0168 0.31825,0.58625 0.29312,0.56112 0.29312,0.603 0,0.0502 -0.134,0.19262 -1.23112,1.30649 -3.15736,1.30649 -1.94298,0 -3.09873,-1.15574 -1.15574,-1.16412 -1.15574,-3.09873 0,-1.72524 1.10549,-3.00661 1.16412,-1.33162 2.85586,-1.33162 1.57449,0 2.62974,1.15575 1.03011,1.12224 1.03011,2.73023 z m -1.99323,-0.51087 q 0,-0.69512 -0.55275,-1.23112 -0.54437,-0.536 -1.23112,-0.536 -0.77049,0 -1.37349,0.61975 -0.59462,0.61975 -0.59462,1.39024 0,0.17588 0.3015,0.17588 1.23949,0 2.96473,-0.25125 0.48575,-0.067 0.48575,-0.1675 z"
           id="path5692-0"
           style="fill:#0c3044;fill-opacity:1" /></g></g></g></svg>
